<svg id="SvgjsSvg1015" width="288" height="288" xmlns="http://www.w3.org/2000/svg" version="1.1" xmlns:xlink="http://www.w3.org/1999/xlink" xmlns:svgjs="http://svgjs.com/svgjs"><defs id="SvgjsDefs1016"></defs><g id="SvgjsG1017"><svg xmlns="http://www.w3.org/2000/svg" fill="none" viewBox="0 0 24 24" width="288" height="288"><path fill="url(#a)" fill-rule="evenodd" d="M2 1C1.44772 1 1 1.44772 1 2V22C1 22.5523 1.44772 23 2 23H22C22.5523 23 23 22.5523 23 22V2C23 1.44772 22.5523 1 22 1H2ZM3 21V3H21V21H3ZM6 6C5.44772 6 5 6.44772 5 7C5 7.55228 5.44772 8 6 8H6.5V16H6C5.44772 16 5 16.4477 5 17C5 17.5523 5.44772 18 6 18H7.5H9C9.55228 18 10 17.5523 10 17C10 16.4477 9.55228 16 9 16H8.5V10.0271L11.0561 17.3304C11.1965 17.7314 11.5751 18 12 18C12.4249 18 12.8035 17.7314 12.9439 17.3304L15.5 10.0271V16H15C14.4477 16 14 16.4477 14 17C14 17.5523 14.4477 18 15 18H16.5H18C18.5523 18 19 17.5523 19 17C19 16.4477 18.5523 16 18 16H17.5V8H18C18.5523 8 19 7.55228 19 7C19 6.44772 18.5523 6 18 6H16.5H15.5C15.0751 6 14.6965 6.26856 14.5561 6.66965L12 13.9729L9.44386 6.66965C9.30348 6.26856 8.92494 6 8.5 6H7.5H6Z" clip-rule="evenodd"></path><defs><linearGradient id="a" x1="12" x2="12" y1="1" y2="23" gradientUnits="userSpaceOnUse"><stop stop-color="#2ac7dc" class="stopColorAB58FF svgShape"></stop><stop offset="1" stop-color="#2ac7dc" class="stopColor6A3093 svgShape"></stop></linearGradient></defs></svg></g></svg>